<?xml version="1.0" encoding="utf-8"?>
<!-- Generator: Adobe Illustrator 16.0.0, SVG Export Plug-In . SVG Version: 6.00 Build 0)  -->
<!DOCTYPE svg PUBLIC "-//W3C//DTD SVG 1.1//EN" "http://www.w3.org/Graphics/SVG/1.1/DTD/svg11.dtd">
<svg version="1.1" id="Layer_1" xmlns="http://www.w3.org/2000/svg" xmlns:xlink="http://www.w3.org/1999/xlink" x="0px" y="0px"
	 width="981.278px" height="378.189px" viewBox="10.694 312.905 981.278 378.189"
	 enable-background="new 10.694 312.905 981.278 378.189" xml:space="preserve">
<g>
	<path fill="#FEFEFE" d="M478.941,313c169.479,0,338.958,0.015,508.437-0.094c3.749-0.003,4.599,0.845,4.595,4.593
		c-0.113,122.984-0.113,245.969,0,368.954c0.004,3.75-0.846,4.595-4.595,4.593c-323.459-0.101-646.919-0.107-970.379,0.048
		c-5.129,0.003-7.128-1.012-5.999-6.141c2.253-1.932,5.005-1.555,7.633-1.561c19.637-0.037,39.273-0.009,58.91-0.023
		c7.713-0.006,7.858-0.134,7.86-7.749c0.014-51.921-0.019-103.842,0.066-155.763c0.005-3.292-1.55-8.408,2.104-9.303
		c3.072-0.752,4.144,4.46,5.524,7.312c2.889,5.967,6.7,11.533,8.239,18.12c0.583,45.926,0.116,91.854,0.263,137.778
		c0.031,9.566,0.013,9.604,9.599,9.566c35.277-0.139,70.552,0.291,105.829,0.192c2.148-0.007,4.332,0.305,6.414-0.456
		c2.357-1.016,3.174-3.271,4.208-5.326c4.467-8.882,8.906-17.777,13.402-26.645c0.87-1.716,1.099-4.39,4.1-4.137
		c1.727,1.205,2.52,3.072,3.39,4.854c4.229,8.66,8.981,17.072,12.604,26.021c1.558,3.849,3.975,5.674,8.294,5.663
		c37.897-0.094,75.795,0.144,113.693,0.061c1.825-0.004,3.735,0.21,4.759-1.851c0.662-2.471,0.431-4.98,0.432-7.466
		c0.012-43.902,0.005-87.803,0.017-131.704c0.001-3.154-0.196-6.325,0.507-9.445c2.476-7.678,6.965-14.358,10.667-21.43
		c0.652-1.246,1.541-2.963,3.274-2.396c1.308,0.429,1.429,2.13,1.588,3.457c0.279,2.322,0.182,4.659,0.183,6.989
		c0.006,50.979,0.003,101.959,0.003,152.938c0,0.999-0.005,1.999,0.003,2.999c0.049,7.457,0.225,7.674,7.454,7.682
		c19.159,0.022,38.318,0.021,57.478,0.002c7.625-0.008,7.827-0.196,7.829-7.853c0.014-79.968,0.007-159.935,0.008-239.9
		c0-37.984-0.013-75.969,0.024-113.952C477.358,318.688,476.796,315.577,478.941,313z"/>
	<path fill="#FE4444" d="M100.104,535.965c-4.042-8.463-8.085-16.928-12.128-25.392c-0.339,0.092-0.678,0.184-1.016,0.274
		c0,1.745,0,3.491,0,5.237c0,54.153,0.012,108.306-0.015,162.459c-0.003,7.207,0.926,6.212-6.472,6.241
		c-23.157,0.089-46.315,0.116-69.473,0.167c0-122.51,0.023-245.021-0.105-367.531c-0.004-3.911,1.056-4.551,4.673-4.515
		C35.041,313.103,54.517,313,73.992,313c1.505,0.838,2.472,2.128,3.221,3.655c7.655,15.593,15.716,30.985,23.15,46.688
		c25.272,49.094,48.664,99.125,73.83,148.271c0.833,1.628,1.644,3.269,2.473,4.896c7.033,14.569,14.472,28.94,21.717,43.407
		c0.436,0.871,0.45,4.198,2.964,1.442c12.207-23.571,23.483-47.587,35.22-71.374c2.274-4.61,4.577-9.205,7.053-13.711
		c4.209-9.258,8.941-18.257,13.484-27.349c21.598-43.23,43.248-86.437,64.841-129.669c1.111-2.225,2.007-4.601,4.015-6.257
		c21.331,0,42.662,0,63.992,0c1.942,2.243,1.588,4.992,1.599,7.622c0.06,14.138,0.024,28.276-0.05,42.414
		c0.177,53.569,0.052,107.139,0.076,160.708c0.001,3.187-0.943,6.212-1.59,9.289c-0.001,48.298-0.001,96.594-0.014,144.892
		c0,1.994-0.115,3.988-0.178,5.983c-1.368,0.928-2.916,0.508-4.378,0.51c-22.327,0.028-44.654,0.025-66.98,0.016
		c-5.3-0.002-5.875-0.503-6.043-6.011c-0.191-6.328-0.077-12.662-0.06-18.993c0.131-46.817-0.295-93.638,0.214-140.438
		c0.024-2.438-0.001-4.895,0.702-7.203c-8.327,16.966-16.535,33.937-25.289,50.641c-12.93,26.449-26.269,52.692-39.361,79.061
		c-1.116,2.247-2.246,4.461-4.47,5.852c-6.158,12.177-12.316,24.353-18.475,36.528c-2.19,1.161-4.549,0.521-6.815,0.535
		c-13.158,0.074-26.323-0.199-39.472,0.156c-4.924,0.135-7.478-1.587-9.611-5.903c-19.185-38.819-38.896-77.378-57.588-116.44
		C108.014,553.529,102.704,545.367,100.104,535.965z"/>
	<path fill="#FE6969" d="M389.988,533.033c0.033-56.764,0.065-113.526,0.099-170.289c1.86-6.972,5.749-13.026,8.848-19.431
		c4.124-8.52,8.482-16.926,12.696-25.403c0.889-1.788,1.743-3.591,3.319-4.91c21.331,0,42.661,0,63.992,0
		c0,121.961-0.029,243.923,0.11,365.883c0.005,4.759-1.047,6.127-5.957,6.062c-21.655-0.293-43.318-0.237-64.977-0.028
		c-4.126,0.039-5.275-1.01-5.264-5.21c0.146-54.815,0.097-109.631,0.097-164.447c0-1.811,0-3.62,0-5.431
		c-0.265-0.107-0.529-0.216-0.794-0.323C398.101,517.347,394.044,525.189,389.988,533.033z"/>
	<path fill="#FE6969" d="M244.806,476.686c-13.26,26.715-26.515,53.43-39.791,80.135c-0.88,1.77-1.918,3.459-2.883,5.187
		c-1.347-0.556-1.899-1.801-2.489-2.971c-7.303-14.48-14.556-28.986-21.782-43.506c-0.519-1.042-0.89-2.13-1.036-3.765
		c0.043,2.148,0.83,4.015-1.065,5.259c-12.549-24.934-25.173-49.827-37.626-74.807c-11.713-23.494-23.241-47.081-34.868-70.618
		c-1.315-2.663-2.745-5.269-4.122-7.901c-1.459-14.512-0.471-29.067-0.718-43.599c-0.042-2.46-0.254-5.021,1.564-7.099
		c20.998,0,41.995,0,62.992,0c2.078,1.071,2.941,3.085,3.911,5.022c13.792,27.555,27.863,54.978,41.225,82.741
		c11.053,22.967,22.724,45.616,33.916,68.506C243.201,471.659,244.414,474.014,244.806,476.686z"/>
	<path fill="#FEFEFE" d="M244.806,476.686c-3.281-4.629-5.342-9.908-7.849-14.939c-24.694-49.564-49.326-99.16-73.976-148.745
		c54.327,0,108.653,0,162.979,0c-5.955,13.877-13.185,27.132-19.887,40.643C285.713,394.688,265.237,435.676,244.806,476.686z"/>
	<path fill="#FEFEFE" d="M99.989,313c-0.021,15.151-0.015,30.303-0.098,45.454c-0.01,1.747,0.709,3.674-0.748,5.244
		C90.76,346.799,82.376,329.899,73.993,313C82.657,313,91.323,313,99.989,313z"/>
	<path fill="#FEFEFE" d="M414.95,313c-7.77,16.841-15.983,33.458-24.863,49.745c-0.045-16.582-0.089-33.163-0.134-49.745
		C398.285,313,406.617,313,414.95,313z"/>
	<path fill="#FE4444" d="M722.808,541.029c-3.163,0.005-6.355,0.287-9.48-0.057c-4.102-0.449-4.915,1.258-4.905,5.041
		c0.117,45.94-0.013,91.883,0.202,137.824c0.022,5.037-1.175,6.333-6.242,6.245c-22.457-0.389-44.923-0.305-67.385-0.393
		c-1.103-1.866-0.528-3.913-0.529-5.861c-0.034-96.604,0.215-193.21-0.246-289.811c-0.087-18.255-0.814-36.542-0.961-54.82
		c-0.055-6.815,0.037-13.597,1.583-20.277l-0.003-0.001c1.592-0.732,3.282-0.391,4.925-0.391
		c85.532-0.019,171.063-0.017,256.597-0.015c6.624,0,7.104,0.36,7.134,6.953c0.085,19.968,0.049,39.936,0.014,59.905
		c-0.005,2.32,0.096,4.702-1.615,6.624l0.004-0.001c-1.564,0.87-3.267,0.45-4.9,0.458c-9.326,0.044-18.655,0.155-27.979-0.002
		c-46.592-0.782-93.153,1.873-139.743,1.172c-1.997-0.03-3.997,0.099-5.984-0.148c-2.326,0.114-4.657,0.057-6.988,0.109
		c-5.177,0.117-5.732,0.581-5.774,5.788c-0.102,12.494-0.029,24.99-0.035,37.483c-0.003,7.497-0.021,14.994,0.012,22.491
		c0.009,1.981-0.231,4.021,0.927,5.815c3.64,2.67,7.663,1.199,11.521,1.012c1.452-0.07,2.909-0.658,4.405-0.673
		c21.717-0.22,43.434-0.122,65.15-0.056c1.693,0.005,3.281,0.414,4.711,1.354c16.225,0.069,32.449,0.134,48.675,0.217
		c1.981,0.012,3.965,0.127,5.946,0.193c1.903,1.851,1.646,4.282,1.651,6.577c0.053,20.162,0.048,40.324,0.006,60.486
		c-0.005,2.312,0.165,4.716-1.623,6.611c-17.946,0.055-35.893,0.109-53.839,0.164c-2.238,1.289-4.677,1.562-7.214,1.561
		c-20.453-0.013-40.906,0.008-61.36-0.023C727.133,542.583,724.768,542.645,722.808,541.029z"/>
	<path fill="#FE6969" d="M722.808,541.029c25.075,0.007,50.15,0.014,75.226,0.021c-1.339,1.967-0.821,4.2-0.822,6.324
		c-0.026,45.658-0.093,91.315,0.09,136.975c0.02,4.652-1.302,5.761-5.809,5.709c-20.993-0.237-41.992-0.26-62.985,0.017
		c-4.587,0.06-5.423-1.363-5.408-5.612c0.152-45.657,0.101-91.315,0.078-136.974C723.175,545.335,722.936,543.182,722.808,541.029z"
		/>
	<path fill="#FE6969" d="M313.938,516.934c0.01,53.645,0.077,107.287-0.077,160.931c-0.015,4.684,1.018,6.249,5.968,6.19
		c23.32-0.271,46.646-0.137,69.969-0.146c-0.935,1.851-2.648,0.971-3.969,0.972c-39.561,0.021-79.119-0.065-118.679,0.012
		c-3.152,0.008-4.7-1.091-6.032-3.82c-5.518-11.315-10.65-22.828-16.986-33.732c14.242-28.465,28.484-56.932,42.726-85.396
		c2.673,2.058,3.325-0.194,4.251-1.966c6.553-12.536,11.933-25.646,18.618-38.114C310.735,519.98,310.89,517.153,313.938,516.934z"
		/>
	<path fill="#FE6969" d="M901.893,391.997c0-22.142,0-44.285-0.002-66.427c-0.001-6.602-0.004-6.604-6.842-6.604
		c-84.572,0.016-169.146,0.032-253.719,0.044c-2.162,0-4.326-0.058-6.49-0.089c1.296-1.618,3.101-0.855,4.65-0.857
		c86.306-0.067,172.611-0.106,258.917-0.105c29.155,0,58.31,0.176,87.464,0.1c3.727-0.009,5.157,0.679,5.113,4.851
		c-0.229,21.658-0.131,43.319-0.076,64.979c0.006,2.578-0.008,4.333-3.55,4.313C958.871,392.028,930.383,392.041,901.893,391.997z"
		/>
	<path fill="#FE6969" d="M851.871,540.887c-0.012-24.559-0.023-49.115-0.034-73.675c28.442-0.044,56.886-0.059,85.33-0.181
		c2.713-0.011,3.787,0.646,3.772,3.588c-0.104,22.29-0.106,44.581,0.002,66.871c0.015,2.925-1.01,3.604-3.742,3.594
		C908.756,540.954,880.312,540.936,851.871,540.887z"/>
	<path fill="#FE6969" d="M797.216,466.802c-19.938,0.063-39.881,0.328-59.816,0.09c-7.985-0.095-15.844,1.491-23.807,1.072
		c-1.602-0.084-3.364,0.53-4.707-0.92c1.598-1.477,3.597-1.529,5.604-1.635c6.718-0.359,6.801-0.421,6.823-7.294
		c0.035-11.3,0.008-22.603,0.011-33.903c0.002-8.476-0.034-16.952,0.022-25.428c0.017-2.297-0.271-4.698,1.381-6.675
		c59.723-0.037,119.446-0.075,179.17-0.112c-1.661,1.162-3.551,0.621-5.328,0.623c-31.262,0.036-62.522,0.101-93.782-0.062
		c-4.188-0.021-5.762,0.777-5.71,5.406C797.335,420.906,797.207,443.854,797.216,466.802z"/>
	<path fill="#FE6969" d="M100.104,535.965c8.147,14.883,15.489,30.17,22.861,45.442c0.938,1.943,1.761,3.944,2.725,5.877
		c15.311,30.683,30.698,61.327,45.871,92.077c1.741,3.527,3.743,4.734,7.636,4.671c15.483-0.253,30.973-0.143,46.46-0.165
		c-1.19,1.798-3.032,1.021-4.574,1.021c-38.791,0.011-77.583-0.055-116.374-0.032c-2.96,0.001-4.884,0.002-4.872-4.052
		c0.145-47.95,0.103-95.901,0.117-143.854C99.954,536.622,100.052,536.293,100.104,535.965z"/>
	<path fill="#FE4444" d="M530.553,384.062c-5.662,0-11.327-0.111-16.983,0.049c-2.671,0.076-3.904-0.457-3.671-3.525
		c1.373-17.92,2.634-35.851,3.797-53.787c0.162-2.5,1.215-2.958,3.402-2.943c11.157,0.077,22.315,0.114,33.473-0.018
		c2.854-0.034,3.23,1.183,3.103,3.609c-0.942,17.786-1.845,35.576-2.594,53.371c-0.112,2.679-1.028,3.361-3.542,3.292
		C541.879,383.954,536.215,384.061,530.553,384.062z"/>
	<path fill="#FE6969" d="M634.843,318.922c0.057,22.815,0.158,45.631,0.161,68.447c0.013,100.773-0.003,201.549-0.008,302.323
		c-1.697-1.675-0.796-3.785-0.797-5.655c-0.055-97.564-0.037-195.128-0.066-292.692c-0.003-8.491,1.124-7.197-7.511-7.274
		c-7.991-0.07-15.986-0.15-23.973,0.052c-3.157,0.08-3.999-0.986-3.771-4.009c1.318-17.414,2.591-34.832,3.646-52.262
		c0.203-3.366,1.503-4.09,4.556-4.008c6.987,0.188,14.005-0.269,20.968,0.182C632.262,324.296,634.498,323.194,634.843,318.922z"/>
	<path fill="#FEFCFC" d="M175.759,517.023c0.107-2.062,0.215-4.124,0.322-6.186c0.266-0.079,0.532-0.157,0.798-0.236
		c8.417,17.135,16.834,34.27,25.252,51.403c-0.562,1.161-1.123,2.322-2.204,4.558C191.604,549.503,183.682,533.263,175.759,517.023z
		"/>
	<path fill="#FEFCFC" d="M313.938,516.934c-7.352,14.612-14.701,29.228-22.06,43.836c-0.801,1.592-1.659,3.153-2.521,4.787
		c-1.892-0.696-1.894-2.358-2.5-3.615c8.701-17.441,17.401-34.883,26.103-52.324c0.326,0.004,0.652,0.008,0.978,0.012
		C313.938,512.062,313.938,514.498,313.938,516.934z"/>
	<path fill="#FEFDFD" d="M722.726,392.108c0.843,2.606,0.445,5.292,0.45,7.939c0.034,20.818-0.05,41.637,0.088,62.455
		c0.022,3.38-0.771,4.846-4.392,4.538c-3.306-0.281-6.656-0.021-9.986,0.003c-0.876-9.62-0.28-19.259-0.361-28.889
		c-0.116-13.64,0.143-27.283-0.132-40.917c-0.086-4.274,1.278-5.584,5.357-5.156C716.711,392.392,719.731,392.12,722.726,392.108z"
		/>
</g>
</svg>
