<?xml version="1.0" encoding="utf-8"?>
<!-- Generator: Adobe Illustrator 16.0.0, SVG Export Plug-In . SVG Version: 6.00 Build 0)  -->
<!DOCTYPE svg PUBLIC "-//W3C//DTD SVG 1.1//EN" "http://www.w3.org/Graphics/SVG/1.1/DTD/svg11.dtd">
<svg version="1.1" id="Layer_1" xmlns="http://www.w3.org/2000/svg" xmlns:xlink="http://www.w3.org/1999/xlink" x="0px" y="0px"
	 width="1000px" height="1000px" viewBox="0 0 1000 1000" enable-background="new 0 0 1000 1000" xml:space="preserve">
<g>
	<path fill="#FEFEFE" d="M478.941,313c169.479,0,338.958,0.015,508.437-0.094c3.749-0.003,4.598,0.845,4.595,4.593
		c-0.114,122.984-0.114,245.969,0,368.954c0.003,3.75-0.846,4.595-4.595,4.593c-323.459-0.101-646.919-0.108-970.379,0.048
		c-5.129,0.003-7.128-1.012-5.999-6.141c2.253-1.932,5.005-1.555,7.633-1.56c19.637-0.038,39.273-0.009,58.91-0.024
		c7.713-0.006,7.858-0.134,7.86-7.749c0.014-51.921-0.019-103.842,0.066-155.763c0.005-3.292-1.55-8.408,2.104-9.302
		c3.072-0.752,4.144,4.46,5.524,7.312c2.889,5.967,6.7,11.533,8.239,18.12c0.583,45.926,0.116,91.854,0.263,137.779
		c0.031,9.566,0.013,9.604,9.599,9.566c35.277-0.139,70.552,0.291,105.829,0.192c2.148-0.006,4.332,0.305,6.414-0.456
		c2.357-1.015,3.174-3.271,4.208-5.326c4.467-8.882,8.906-17.777,13.402-26.644c0.87-1.716,1.099-4.39,4.1-4.137
		c1.727,1.205,2.52,3.072,3.39,4.854c4.229,8.661,8.981,17.073,12.604,26.021c1.558,3.849,3.975,5.674,8.294,5.663
		c37.897-0.094,75.795,0.144,113.693,0.061c1.825-0.004,3.735,0.21,4.759-1.851c0.662-2.471,0.43-4.98,0.431-7.466
		c0.012-43.902,0.005-87.803,0.017-131.704c0.001-3.154-0.196-6.325,0.507-9.445c2.475-7.678,6.965-14.359,10.667-21.43
		c0.652-1.246,1.541-2.963,3.274-2.396c1.308,0.428,1.429,2.129,1.588,3.457c0.279,2.322,0.182,4.659,0.183,6.989
		c0.005,50.979,0.003,101.959,0.003,152.938c0,0.999-0.005,1.999,0.002,2.999c0.049,7.457,0.225,7.674,7.455,7.682
		c19.159,0.022,38.318,0.021,57.477,0.002c7.625-0.008,7.827-0.196,7.829-7.853c0.014-79.967,0.007-159.934,0.008-239.9
		c0-37.984-0.013-75.969,0.024-113.952C477.358,318.688,476.796,315.577,478.941,313z"/>
	<path fill-rule="evenodd" clip-rule="evenodd" fill="#FE4444" d="M100.104,535.965c-4.042-8.463-8.085-16.928-12.128-25.392
		c-0.339,0.092-0.678,0.184-1.016,0.275c0,1.745,0,3.491,0,5.237c0,54.153,0.012,108.306-0.015,162.459
		c-0.003,7.207,0.926,6.212-6.472,6.241c-23.157,0.089-46.315,0.116-69.473,0.167c0-122.51,0.023-245.021-0.105-367.531
		c-0.004-3.911,1.056-4.551,4.673-4.515C35.041,313.103,54.517,313,73.992,313c1.505,0.838,2.472,2.128,3.221,3.655
		c7.655,15.593,15.716,30.985,23.15,46.688c25.272,49.094,48.664,99.125,73.83,148.271c0.833,1.628,1.644,3.269,2.473,4.896
		c7.033,14.569,14.472,28.94,21.717,43.407c0.436,0.871,0.45,4.198,2.964,1.442c12.207-23.571,23.483-47.587,35.22-71.374
		c2.274-4.61,4.577-9.205,7.053-13.711c4.209-9.257,8.941-18.256,13.484-27.348c21.598-43.231,43.248-86.437,64.841-129.669
		c1.112-2.225,2.007-4.601,4.015-6.257c21.331,0,42.662,0,63.992,0c1.943,2.243,1.588,4.992,1.599,7.622
		c0.059,14.138,0.024,28.276-0.05,42.414c0.177,53.569,0.052,107.139,0.076,160.708c0.001,3.187-0.943,6.212-1.59,9.289
		c-0.001,48.298-0.001,96.594-0.013,144.892c0,1.994-0.116,3.988-0.178,5.983c-1.368,0.928-2.916,0.508-4.378,0.51
		c-22.327,0.028-44.654,0.025-66.981,0.016c-5.299-0.002-5.875-0.503-6.042-6.011c-0.192-6.328-0.078-12.662-0.06-18.993
		c0.131-46.818-0.295-93.638,0.214-140.439c0.024-2.438-0.001-4.894,0.702-7.203c-8.327,16.966-16.535,33.937-25.289,50.641
		c-12.93,26.449-26.269,52.692-39.361,79.06c-1.116,2.247-2.246,4.461-4.47,5.852c-6.158,12.176-12.316,24.352-18.475,36.528
		c-2.19,1.161-4.549,0.521-6.815,0.535c-13.158,0.074-26.323-0.199-39.472,0.157c-4.924,0.134-7.478-1.587-9.611-5.904
		c-19.185-38.819-38.896-77.378-57.588-116.44C108.014,553.529,102.704,545.367,100.104,535.965z"/>
	<path fill-rule="evenodd" clip-rule="evenodd" fill="#FE6969" d="M389.988,533.033c0.033-56.763,0.066-113.526,0.099-170.289
		c1.86-6.972,5.749-13.026,8.848-19.431c4.124-8.52,8.482-16.926,12.696-25.403c0.888-1.788,1.743-3.591,3.319-4.91
		c21.331,0,42.661,0,63.992,0c0,121.961-0.029,243.923,0.111,365.883c0.005,4.759-1.047,6.127-5.957,6.061
		c-21.656-0.293-43.319-0.237-64.977-0.028c-4.126,0.039-5.275-1.01-5.264-5.21c0.146-54.815,0.097-109.631,0.097-164.447
		c0-1.811,0-3.62,0-5.431c-0.265-0.107-0.529-0.216-0.794-0.323C398.101,517.347,394.044,525.189,389.988,533.033z"/>
	<path fill-rule="evenodd" clip-rule="evenodd" fill="#FE6969" d="M244.806,476.686c-13.26,26.714-26.515,53.429-39.791,80.134
		c-0.88,1.77-1.918,3.459-2.883,5.187c-1.347-0.556-1.899-1.801-2.489-2.971c-7.303-14.48-14.556-28.986-21.782-43.506
		c-0.519-1.042-0.89-2.13-1.036-3.764c0.043,2.148,0.83,4.014-1.065,5.258c-12.549-24.933-25.173-49.827-37.626-74.806
		c-11.713-23.494-23.241-47.081-34.868-70.618c-1.315-2.663-2.745-5.269-4.122-7.901c-1.459-14.512-0.471-29.067-0.718-43.599
		c-0.042-2.46-0.254-5.021,1.564-7.099c20.998,0,41.995,0,62.992,0c2.078,1.071,2.941,3.085,3.911,5.022
		c13.792,27.555,27.863,54.978,41.225,82.741c11.053,22.966,22.724,45.616,33.916,68.506
		C243.201,471.659,244.414,474.014,244.806,476.686z"/>
	<path fill-rule="evenodd" clip-rule="evenodd" fill="#FEFEFE" d="M244.806,476.686c-3.281-4.629-5.342-9.909-7.849-14.94
		c-24.694-49.564-49.326-99.16-73.976-148.745c54.327,0,108.653,0,162.979,0c-5.955,13.877-13.185,27.132-19.887,40.643
		C285.713,394.688,265.237,435.676,244.806,476.686z"/>
	<path fill-rule="evenodd" clip-rule="evenodd" fill="#FEFEFE" d="M99.989,313c-0.021,15.151-0.015,30.303-0.098,45.454
		c-0.01,1.747,0.709,3.674-0.748,5.244c-8.383-16.899-16.767-33.799-25.15-50.698C82.657,313,91.323,313,99.989,313z"/>
	<path fill-rule="evenodd" clip-rule="evenodd" fill="#FEFEFE" d="M414.95,313c-7.769,16.841-15.983,33.458-24.863,49.745
		c-0.045-16.582-0.089-33.163-0.134-49.745C398.285,313,406.617,313,414.95,313z"/>
	<path fill-rule="evenodd" clip-rule="evenodd" fill="#FE4444" d="M722.808,541.029c-3.163,0.005-6.356,0.287-9.481-0.056
		c-4.101-0.45-4.915,1.257-4.905,5.041c0.117,45.94-0.013,91.883,0.202,137.824c0.023,5.037-1.175,6.333-6.242,6.245
		c-22.457-0.389-44.923-0.305-67.385-0.393c-1.102-1.866-0.528-3.913-0.529-5.861c-0.034-96.604,0.215-193.21-0.246-289.811
		c-0.087-18.255-0.815-36.542-0.961-54.82c-0.055-6.815,0.037-13.597,1.583-20.277l-0.003-0.001
		c1.592-0.732,3.282-0.391,4.925-0.391c85.532-0.019,171.063-0.017,256.596-0.015c6.624,0,7.105,0.36,7.134,6.953
		c0.085,19.968,0.049,39.936,0.014,59.905c-0.005,2.32,0.096,4.702-1.615,6.624l0.003-0.001c-1.564,0.87-3.266,0.45-4.9,0.458
		c-9.326,0.044-18.655,0.155-27.979-0.002c-46.592-0.782-93.154,1.873-139.744,1.172c-1.997-0.03-3.997,0.099-5.984-0.148
		c-2.326,0.114-4.657,0.057-6.988,0.109c-5.177,0.117-5.733,0.581-5.775,5.788c-0.101,12.494-0.029,24.99-0.035,37.484
		c-0.003,7.497-0.02,14.994,0.012,22.491c0.009,1.981-0.232,4.021,0.927,5.815c3.639,2.67,7.663,1.199,11.521,1.012
		c1.452-0.07,2.909-0.658,4.405-0.673c21.717-0.22,43.434-0.122,65.151-0.056c1.693,0.005,3.281,0.414,4.711,1.355
		c16.224,0.069,32.449,0.134,48.674,0.217c1.982,0.011,3.965,0.127,5.947,0.193c1.903,1.851,1.646,4.282,1.651,6.577
		c0.053,20.162,0.048,40.324,0.006,60.486c-0.005,2.312,0.165,4.716-1.623,6.612c-17.946,0.055-35.893,0.109-53.839,0.164
		c-2.238,1.289-4.677,1.561-7.214,1.56c-20.453-0.012-40.906,0.008-61.36-0.023C727.133,542.583,724.768,542.645,722.808,541.029z"
		/>
	<path fill-rule="evenodd" clip-rule="evenodd" fill="#FE6969" d="M722.808,541.029c25.075,0.007,50.15,0.014,75.225,0.021
		c-1.339,1.967-0.821,4.2-0.822,6.324c-0.026,45.658-0.093,91.316,0.09,136.975c0.019,4.652-1.302,5.76-5.809,5.709
		c-20.993-0.238-41.992-0.26-62.985,0.016c-4.587,0.06-5.423-1.363-5.408-5.612c0.152-45.657,0.1-91.315,0.078-136.974
		C723.175,545.335,722.936,543.182,722.808,541.029z"/>
	<path fill-rule="evenodd" clip-rule="evenodd" fill="#FE6969" d="M313.938,516.934c0.009,53.644,0.077,107.287-0.078,160.93
		c-0.014,4.684,1.018,6.249,5.968,6.191c23.32-0.271,46.646-0.137,69.969-0.146c-0.935,1.851-2.649,0.971-3.969,0.972
		c-39.56,0.02-79.119-0.066-118.679,0.012c-3.152,0.007-4.7-1.091-6.032-3.821c-5.518-11.315-10.65-22.828-16.986-33.732
		c14.242-28.465,28.484-56.932,42.726-85.397c2.673,2.058,3.325-0.194,4.251-1.965c6.553-12.537,11.933-25.646,18.618-38.115
		C310.735,519.98,310.89,517.153,313.938,516.934z"/>
	<path fill-rule="evenodd" clip-rule="evenodd" fill="#FE6969" d="M901.893,391.997c0-22.142,0-44.285-0.002-66.427
		c-0.001-6.602-0.004-6.604-6.842-6.604c-84.572,0.016-169.146,0.032-253.719,0.044c-2.162,0-4.326-0.058-6.49-0.089
		c1.296-1.618,3.1-0.855,4.65-0.857c86.306-0.067,172.611-0.106,258.917-0.105c29.155,0,58.31,0.176,87.464,0.1
		c3.727-0.009,5.157,0.679,5.113,4.851c-0.229,21.658-0.13,43.319-0.076,64.979c0.006,2.578-0.008,4.333-3.55,4.313
		C958.871,392.028,930.383,392.041,901.893,391.997z"/>
	<path fill-rule="evenodd" clip-rule="evenodd" fill="#FE6969" d="M851.871,540.887c-0.012-24.559-0.023-49.116-0.034-73.675
		c28.442-0.044,56.886-0.059,85.33-0.181c2.713-0.011,3.787,0.647,3.773,3.588c-0.105,22.29-0.107,44.581,0.001,66.871
		c0.015,2.925-1.009,3.605-3.742,3.594C908.756,540.954,880.313,540.936,851.871,540.887z"/>
	<path fill-rule="evenodd" clip-rule="evenodd" fill="#FE6969" d="M797.216,466.802c-19.939,0.063-39.881,0.328-59.817,0.09
		c-7.985-0.095-15.843,1.491-23.806,1.072c-1.602-0.084-3.364,0.53-4.707-0.92c1.597-1.477,3.596-1.529,5.603-1.635
		c6.718-0.359,6.801-0.421,6.823-7.294c0.036-11.3,0.008-22.602,0.011-33.903c0.002-8.476-0.034-16.952,0.023-25.428
		c0.016-2.297-0.271-4.698,1.38-6.675c59.723-0.037,119.447-0.075,179.17-0.112c-1.661,1.162-3.55,0.621-5.328,0.623
		c-31.261,0.036-62.522,0.101-93.782-0.062c-4.187-0.021-5.762,0.777-5.71,5.406C797.335,420.906,797.207,443.854,797.216,466.802z"
		/>
	<path fill-rule="evenodd" clip-rule="evenodd" fill="#FE6969" d="M100.104,535.965c8.147,14.883,15.489,30.17,22.861,45.442
		c0.938,1.944,1.761,3.945,2.725,5.877c15.311,30.683,30.698,61.327,45.871,92.077c1.741,3.528,3.743,4.735,7.636,4.671
		c15.483-0.253,30.973-0.142,46.46-0.165c-1.19,1.798-3.032,1.021-4.574,1.021c-38.791,0.01-77.583-0.055-116.374-0.033
		c-2.96,0.001-4.884,0.002-4.872-4.051c0.145-47.951,0.103-95.902,0.117-143.854C99.954,536.622,100.052,536.293,100.104,535.965z"
		/>
	<path fill-rule="evenodd" clip-rule="evenodd" fill="#FE4444" d="M530.553,384.062c-5.662,0-11.327-0.111-16.984,0.049
		c-2.671,0.076-3.904-0.457-3.67-3.525c1.372-17.92,2.633-35.851,3.796-53.787c0.162-2.5,1.215-2.958,3.403-2.943
		c11.157,0.077,22.315,0.114,33.472-0.018c2.855-0.034,3.231,1.183,3.103,3.609c-0.943,17.786-1.845,35.576-2.594,53.371
		c-0.112,2.679-1.028,3.361-3.542,3.292C541.879,383.954,536.215,384.061,530.553,384.062z"/>
	<path fill-rule="evenodd" clip-rule="evenodd" fill="#FE6969" d="M634.843,318.922c0.056,22.815,0.158,45.631,0.161,68.447
		c0.013,100.774-0.003,201.549-0.008,302.323c-1.697-1.674-0.796-3.785-0.797-5.655c-0.054-97.564-0.037-195.128-0.066-292.692
		c-0.003-8.491,1.124-7.197-7.511-7.274c-7.991-0.07-15.986-0.15-23.973,0.052c-3.157,0.08-3.999-0.986-3.77-4.009
		c1.318-17.414,2.591-34.832,3.646-52.262c0.204-3.366,1.503-4.09,4.556-4.008c6.987,0.188,14.005-0.269,20.968,0.182
		C632.262,324.296,634.498,323.194,634.843,318.922z"/>
	<path fill-rule="evenodd" clip-rule="evenodd" fill="#FEFCFC" d="M175.759,517.023c0.107-2.062,0.215-4.124,0.322-6.185
		c0.266-0.079,0.532-0.157,0.798-0.236c8.417,17.134,16.834,34.269,25.252,51.403c-0.562,1.161-1.123,2.322-2.204,4.557
		C191.604,549.503,183.682,533.263,175.759,517.023z"/>
	<path fill-rule="evenodd" clip-rule="evenodd" fill="#FEFCFC" d="M313.938,516.934c-7.352,14.612-14.701,29.227-22.06,43.835
		c-0.801,1.592-1.659,3.154-2.521,4.788c-1.892-0.697-1.894-2.359-2.5-3.616c8.701-17.441,17.401-34.882,26.103-52.324
		c0.326,0.004,0.652,0.008,0.978,0.012C313.938,512.062,313.938,514.498,313.938,516.934z"/>
	<path fill-rule="evenodd" clip-rule="evenodd" fill="#FEFDFD" d="M722.726,392.108c0.842,2.606,0.445,5.292,0.45,7.939
		c0.034,20.818-0.05,41.637,0.088,62.455c0.022,3.38-0.772,4.846-4.392,4.538c-3.306-0.281-6.656-0.02-9.986,0.003
		c-0.876-9.62-0.281-19.259-0.362-28.889c-0.116-13.639,0.143-27.283-0.131-40.917c-0.086-4.274,1.278-5.584,5.357-5.156
		C716.711,392.392,719.731,392.12,722.726,392.108z"/>
</g>
</svg>
